<?xml version="1.0" encoding="UTF-8"?>
<svg version="1.1" viewBox="0 0 800 800" width="1280" height="1280" xmlns="http://www.w3.org/2000/svg">
<path transform="translate(366)" d="m0 0h68l39 6 27 6 21 6 21 7 26 11 16 8 22 12 30 20 18 14 11 10 8 7 7 6v2l4 2v2h2v2h2l7 8 11 12 11 14 12 16 11 17 11 19 12 23 12 28 11 34 7 30 5 30 2 15v62l-5 38-6 28-7 26-10 28-12 27-11 21-15 24-13 19-11 13-8 10-12 13-20 20-8 7-16 13-15 11-12 8-18 11-18 10-25 12-23 9-25 8-28 7-41 7-8 1h-64l-44-7-27-6-27-8-27-10-33-16-18-10-24-16-12-9-10-8-14-12-16-15-9-9-7-8-9-10-11-14-13-18-12-19-12-22-12-25-9-23-8-24-7-29-6-36-2-15v-65l7-44 7-30 12-36 11-26 13-25 10-17 15-22 9-12 9-11 12-14 26-26 8-7 12-10 20-15 17-11 19-11 23-12 25-11 33-11 29-7 27-5z" fill="#FDFDFE"/>
<path transform="translate(478,445)" d="m0 0h318l1 1-1 14-6 31-8 30-10 28-12 27-11 21-15 24-13 19-11 13-8 10-12 13-20 20-8 7-16 13-15 11-12 8-18 11-18 10-25 12-23 9-25 8-28 7-41 7-8 1h-64l-44-7-27-6-27-8-27-10-33-16-18-10-24-16-12-9-10-8-14-12-16-15-9-9-7-8-9-10-11-14-13-18-12-19-12-22-12-25-9-23-8-24-4-16v-4l356-1 15-7 30-13 15-7 36-16 2-1z" fill="#158F07"/>
<path transform="translate(366)" d="m0 0h68l39 6 27 6 21 6 21 7 26 11 16 8 22 12 30 20 18 14 11 10 8 7 7 6v2l4 2v2h2v2h2l7 8 11 12 11 14 12 16 11 17 11 19 12 23 12 28 11 34 7 30 5 30 2 15v27h-324l1-4 16-8 21-11 4-5 7-27 2-8v-4l-6 2-13 8-22 12-21 12-29 16-21 12-12 7-11 6-24 13-23 13-18 10-5 3h-4v-44l5-4 45-25 23-13 45-25 23-13 54-30 13-7-1-16-1-15-11 6-83 46-22 12-23 13-24 13-25 14-14 8-4 1v-64l9-6 24-13 21-12 22-12 23-13 56-31 25-14 11-6-1-7-4-10-2-6-5 1-29 16-16 9-27 15-23 13-24 13-25 14-18 10-12 7-5 1v-63l46-25 23-12 18-10 23-12 22-12 16-9 10-5-1-5-12-18-6 1-23 13-101 56-13 7h-2l-1-69 3-3 32-17 23-12 34-18 10-5-2-4-15-11-3-3-5 1-28 15-29 16-17 9h-2v-41h-51l-1 40-5-1-15-9-12-6-10-6-7-4 3-3 23-11 23-9 26-8 34-8 32-5z" fill="#0014F8"/>
<path transform="translate(478,445)" d="m0 0h318l1 1-1 14-6 31-1 4-4 1h-292l-8 2-29 14-29 13-14 7-33 15-5 2h-346l-4-8-10-30-4-16v-4l356-1 15-7 30-13 15-7 36-16 2-1z" fill="#158F07"/>
<path transform="translate(62,185)" d="m0 0 5 1 24 13 74 41 25 14 24 13 18 10 22 12 11 7 1 1v64l-5-1-22-12-23-13-24-13-23-13-26-14-17-10-12-6-10-6-11-6-18-10-11-6-5-2 1 3 1 29 14 8 52 29 79 44 25 14 29 16 6 4v44l-2 1-35-19-23-13-27-15-23-13-81-45-7-4 10 36 4 5 24 13 23 13 45 25 21 12 13 7 1 3h-204l-3-1-2-14v-65l7-44 7-30 12-36 11-26 13-25 10-17z" fill="#0014F8"/>
<path transform="translate(493,495)" d="m0 0h295l-1 8-8 27-7 19-281 1-16 7-34 16-20 9-30 14-11 5-4 1h-322l-17-33-8-18v-2l346-1 25-11 26-12 15-7 33-16 13-6z" fill="#FDFDFE"/>
<path transform="translate(491,549)" d="m0 0h280l-3 9-9 20-10 19-2 3-257 1-27 12-16 8-28 13-34 16-10 4h-284l-8-9-13-18-11-17-4-7v-2h321l10-4 25-11 14-7 33-15 30-14z" fill="#158F07"/>
<path transform="translate(490,600)" d="m0 0h256l-2 5-10 16-13 19-11 13-2 2h-217l-16 7-28 13-67 31-237 1-15-14-8-7-12-12-7-8-9-10v-2l283-1 18-8 34-16 58-27z" fill="#FDFDFE"/>
<path transform="translate(489,701)" d="m0 0h174l-5 5-12 10-15 11-12 8-18 11-18 10-25 12-23 9-25 8-28 7-41 7-8 1h-64l-44-7-27-6-27-8-27-10-27-13v-1l159-1 36-17 34-16 32-15z" fill="#FDFDFE"/>
<path transform="translate(114,120)" d="m0 0 6 1 19 10 21 12 29 16 23 13 26 14 23 13 5 3v64l-4-1-19-10-23-13-27-15-22-12-17-10-12-6-21-12-29-16-13-8 2-5 11-14 13-15z" fill="#0014F8"/>
<path transform="translate(188,60)" d="m0 0 6 1 24 13 23 13 20 11 5 4v70l-4-1-24-13-16-9-14-8-33-18-17-10-11-6-12-6 6-7 14-11 16-12z" fill="#0014F8"/>
<path transform="translate(490,755)" d="m0 0h92l-3 3-21 10-23 9-25 8-28 7-41 7-8 1h-37l4-3 16-8 39-18 20-9z" fill="#168F08"/>
</svg>
